G75*
G70*
%OFA0B0*%
%FSLAX24Y24*%
%IPPOS*%
%LPD*%
%AMOC8*
5,1,8,0,0,1.08239X$1,22.5*
%
%ADD10C,0.0000*%
%ADD11R,0.0500X0.0220*%
%ADD12R,0.0220X0.0500*%
%ADD13C,0.0175*%
%ADD14R,0.0433X0.0394*%
%ADD15R,0.0591X0.0512*%
%ADD16R,0.0425X0.0413*%
%ADD17C,0.0600*%
%ADD18R,0.0480X0.0880*%
%ADD19R,0.1417X0.0866*%
%ADD20R,0.0630X0.1063*%
%ADD21R,0.0512X0.0591*%
%ADD22OC8,0.0600*%
%ADD23C,0.0120*%
%ADD24C,0.0317*%
%ADD25C,0.0160*%
D10*
X000180Y000547D02*
X000180Y012143D01*
X010950Y012143D01*
X010950Y000547D01*
X000180Y000547D01*
D11*
X006890Y002245D03*
X006890Y002560D03*
X006890Y002875D03*
X006890Y003190D03*
X006890Y003504D03*
X006890Y003819D03*
X006890Y004134D03*
X006890Y004449D03*
X010270Y004449D03*
X010270Y004134D03*
X010270Y003819D03*
X010270Y003504D03*
X010270Y003190D03*
X010270Y002875D03*
X010270Y002560D03*
X010270Y002245D03*
D12*
X009682Y001657D03*
X009367Y001657D03*
X009052Y001657D03*
X008737Y001657D03*
X008423Y001657D03*
X008108Y001657D03*
X007793Y001657D03*
X007478Y001657D03*
X007478Y005037D03*
X007793Y005037D03*
X008108Y005037D03*
X008423Y005037D03*
X008737Y005037D03*
X009052Y005037D03*
X009367Y005037D03*
X009682Y005037D03*
D13*
X004968Y002485D02*
X004968Y002209D01*
X004792Y002209D01*
X004792Y002485D01*
X004968Y002485D01*
X004968Y002383D02*
X004792Y002383D01*
X004168Y002485D02*
X004168Y002209D01*
X003992Y002209D01*
X003992Y002485D01*
X004168Y002485D01*
X004168Y002383D02*
X003992Y002383D01*
X004168Y001485D02*
X004168Y001209D01*
X003992Y001209D01*
X003992Y001485D01*
X004168Y001485D01*
X004168Y001383D02*
X003992Y001383D01*
X004968Y001485D02*
X004968Y001209D01*
X004792Y001209D01*
X004792Y001485D01*
X004968Y001485D01*
X004968Y001383D02*
X004792Y001383D01*
D14*
X005480Y001412D03*
X005480Y002082D03*
X004680Y003112D03*
X004680Y003782D03*
X003415Y002247D03*
X002745Y002247D03*
X002745Y001347D03*
X003415Y001347D03*
X003080Y007012D03*
X003080Y007682D03*
D15*
X003180Y003882D03*
X003180Y003212D03*
X006680Y007212D03*
X006680Y007882D03*
X010180Y007582D03*
X010180Y006912D03*
D16*
X002980Y008303D03*
X002980Y008992D03*
D17*
X001880Y008747D02*
X001280Y008747D01*
X001280Y007747D02*
X001880Y007747D01*
X001880Y006347D02*
X001280Y006347D01*
X001280Y005347D02*
X001880Y005347D01*
X001880Y004347D02*
X001280Y004347D01*
X001280Y003347D02*
X001880Y003347D01*
X001880Y002347D02*
X001280Y002347D01*
X001280Y001347D02*
X001880Y001347D01*
D18*
X004570Y008827D03*
X005480Y008827D03*
X006390Y008827D03*
X007670Y008827D03*
X008580Y008827D03*
X009490Y008827D03*
D19*
X008580Y011267D03*
X005480Y011267D03*
D20*
X005431Y007447D03*
X004329Y007447D03*
X008029Y007347D03*
X009131Y007347D03*
D21*
X003615Y006247D03*
X002945Y006247D03*
D22*
X002580Y010247D03*
X002580Y011247D03*
X001580Y011247D03*
X001580Y010247D03*
X003580Y010247D03*
X003580Y011247D03*
D23*
X003380Y010747D02*
X002880Y010247D01*
X002580Y010247D01*
X002280Y009747D02*
X003080Y009747D01*
X003280Y009947D01*
X006680Y009947D01*
X006980Y009647D01*
X006980Y010147D02*
X007480Y009647D01*
X007680Y009247D02*
X007680Y008847D01*
X007670Y008827D01*
X007680Y008747D01*
X007680Y008147D01*
X007980Y007847D01*
X007980Y007347D01*
X008029Y007347D01*
X008080Y007347D01*
X007980Y007247D01*
X006680Y007247D01*
X006680Y007212D01*
X006680Y007247D02*
X006280Y007247D01*
X006180Y007147D01*
X006180Y006847D01*
X006080Y006847D01*
X005680Y006447D02*
X005480Y006247D01*
X003615Y006247D01*
X003580Y006247D01*
X003080Y007012D02*
X002980Y007047D01*
X002680Y007347D01*
X002380Y007347D01*
X002380Y006947D02*
X001580Y006947D01*
X001580Y007747D01*
X002380Y008547D01*
X002380Y008847D01*
X002480Y008947D01*
X002980Y008947D01*
X002980Y008992D01*
X002980Y008947D02*
X003880Y008947D01*
X003980Y008847D01*
X004480Y008847D01*
X004570Y008827D01*
X004580Y008747D01*
X004580Y008447D01*
X004280Y008147D01*
X004280Y007447D01*
X004329Y007447D01*
X003480Y007047D02*
X004280Y006447D01*
X005380Y006447D01*
X005480Y006547D01*
X005480Y007447D01*
X005431Y007447D01*
X005480Y007447D02*
X005480Y008827D01*
X006380Y009447D02*
X006080Y009747D01*
X003380Y009747D01*
X003180Y009547D01*
X002380Y009547D01*
X001580Y008747D01*
X001280Y009447D02*
X001980Y009447D01*
X002280Y009747D01*
X003280Y009947D02*
X003580Y010247D01*
X003380Y010747D02*
X003780Y010747D01*
X004380Y010147D01*
X006980Y010147D01*
X006380Y009447D02*
X006380Y008847D01*
X006390Y008827D01*
X006280Y008747D01*
X006280Y007847D01*
X006680Y007847D01*
X006680Y007882D01*
X006680Y007847D02*
X007180Y007847D01*
X007180Y008947D01*
X007080Y008947D01*
X007680Y009247D02*
X007980Y009647D01*
X008580Y008827D02*
X008580Y008447D01*
X009180Y007847D01*
X009180Y007347D01*
X009131Y007347D01*
X009180Y007347D02*
X009180Y007047D01*
X009080Y006947D01*
X008680Y006947D01*
X008280Y006547D01*
X008180Y006447D01*
X005680Y006447D01*
X005780Y005947D02*
X005780Y005747D01*
X006580Y005747D01*
X007080Y006247D01*
X007980Y006247D01*
X008080Y006147D01*
X008980Y006147D01*
X009380Y005747D01*
X009080Y005647D02*
X008880Y005947D01*
X007980Y005947D01*
X007880Y006047D01*
X007180Y006047D01*
X006680Y005547D01*
X002380Y005547D01*
X001580Y006347D01*
X001180Y007047D02*
X000780Y007047D01*
X000780Y002747D01*
X001280Y002347D01*
X001580Y002347D01*
X002480Y003147D01*
X002480Y003747D01*
X003280Y003747D01*
X003180Y003882D01*
X003280Y003747D02*
X003580Y003747D01*
X004180Y003147D01*
X004680Y003147D01*
X004680Y003112D01*
X004680Y003747D02*
X004180Y003747D01*
X003380Y004547D01*
X003180Y004947D02*
X001580Y003347D01*
X001280Y002347D02*
X000780Y001847D01*
X000780Y001147D01*
X000980Y000847D01*
X009380Y000847D01*
X009680Y001247D01*
X010180Y001247D01*
X010680Y001747D01*
X010680Y002447D01*
X010580Y002547D01*
X010280Y002547D01*
X010270Y002560D01*
X010180Y002547D01*
X009980Y002547D01*
X009680Y002847D01*
X007280Y002847D01*
X007280Y003447D01*
X007180Y003547D01*
X006980Y003547D01*
X006890Y003504D01*
X006890Y003190D02*
X006880Y003147D01*
X006480Y003147D01*
X006480Y003847D01*
X006480Y004547D01*
X005880Y004547D01*
X005380Y003747D02*
X004980Y004147D01*
X004380Y004147D01*
X003980Y004547D01*
X004480Y004547D02*
X004880Y004547D01*
X005980Y003447D01*
X005980Y003047D01*
X006180Y002847D01*
X006380Y002547D02*
X005880Y002047D01*
X005480Y002047D01*
X005480Y002082D01*
X005480Y002047D02*
X005180Y002047D01*
X005080Y001947D01*
X004180Y001947D01*
X004080Y002047D01*
X004080Y002347D01*
X003415Y002247D01*
X003480Y001747D02*
X004880Y001747D01*
X004880Y001347D01*
X004880Y001447D01*
X005480Y001447D01*
X005480Y001412D01*
X005480Y001447D02*
X005780Y001447D01*
X005880Y001547D01*
X005880Y001847D01*
X006080Y001847D01*
X006480Y002247D01*
X006880Y002247D01*
X006890Y002245D01*
X006880Y002547D02*
X006890Y002560D01*
X006880Y002547D02*
X006380Y002547D01*
X006890Y002875D02*
X006980Y002847D01*
X007280Y002847D01*
X007780Y003347D02*
X007780Y004047D01*
X007680Y004147D01*
X006980Y004147D01*
X006890Y004134D01*
X006880Y003847D02*
X006890Y003819D01*
X006880Y003847D02*
X006480Y003847D01*
X007280Y004647D02*
X006980Y004947D01*
X003180Y004947D01*
X003080Y005147D02*
X002280Y004347D01*
X001580Y004347D01*
X001580Y005347D02*
X006780Y005347D01*
X007280Y005847D01*
X007780Y005847D01*
X007880Y005747D01*
X008680Y005747D01*
X008780Y005547D01*
X008780Y005047D01*
X008737Y005037D01*
X008423Y005037D02*
X008380Y004947D01*
X008380Y004647D01*
X009880Y004647D01*
X009980Y004847D01*
X009980Y005547D01*
X009380Y006247D01*
X009380Y006547D01*
X008880Y006547D01*
X009080Y005647D02*
X009080Y005047D01*
X009052Y005037D01*
X008108Y005037D02*
X008080Y004947D01*
X008080Y004647D01*
X007280Y004647D01*
X007780Y005047D02*
X007793Y005037D01*
X007780Y005047D02*
X007780Y005547D01*
X007680Y005647D01*
X007380Y005647D01*
X006880Y005147D01*
X003080Y005147D01*
X002680Y005747D02*
X002380Y006047D01*
X002680Y005747D02*
X005780Y005747D01*
X005380Y003747D02*
X005380Y002847D01*
X004680Y003747D02*
X004680Y003782D01*
X003280Y003147D02*
X003180Y003212D01*
X003180Y003147D02*
X003280Y003147D01*
X003180Y003147D02*
X002780Y002747D01*
X002780Y002447D01*
X002880Y002347D01*
X002780Y002247D01*
X002745Y002247D01*
X002780Y002347D01*
X002780Y002247D01*
X002780Y001347D01*
X002745Y001347D01*
X001580Y001347D01*
X003415Y001347D02*
X003480Y001347D01*
X003480Y001747D01*
X002980Y006247D02*
X002945Y006247D01*
X002980Y006247D02*
X002980Y006347D01*
X002380Y006947D01*
X002980Y007047D02*
X003480Y007047D01*
X003080Y007682D02*
X002980Y007682D01*
X002980Y008303D01*
X003080Y007682D02*
X002980Y007647D01*
X007080Y001547D02*
X007080Y001347D01*
X007180Y001247D01*
X009380Y001247D01*
X009380Y001647D01*
X009367Y001657D01*
X009682Y001657D02*
X009680Y001747D01*
X009680Y002347D01*
X010180Y002147D02*
X010180Y001847D01*
X010180Y002147D02*
X010270Y002245D01*
X010270Y003504D02*
X010180Y003547D01*
X009380Y003547D01*
X009280Y003647D01*
X010180Y006912D02*
X010215Y006947D01*
X010380Y006947D01*
X010680Y007247D01*
X010680Y007947D01*
X010180Y008247D01*
X010180Y007582D02*
X010180Y007547D01*
X009980Y007547D01*
X009480Y008047D01*
X009480Y008747D01*
X009490Y008827D01*
X009480Y008847D01*
X009480Y009647D01*
X008580Y011147D02*
X008480Y011247D01*
X008580Y011347D01*
D24*
X007980Y009647D03*
X007480Y009647D03*
X006980Y009647D03*
X007080Y008947D03*
X006080Y006847D03*
X005780Y005947D03*
X005880Y004547D03*
X006180Y002847D03*
X005380Y002847D03*
X004480Y004547D03*
X003980Y004547D03*
X003380Y004547D03*
X002380Y006047D03*
X002380Y007347D03*
X001180Y007047D03*
X001280Y009447D03*
X003980Y008847D03*
X007780Y003347D03*
X007080Y001547D03*
X009280Y003647D03*
X009680Y002347D03*
X010180Y001847D03*
X009380Y005747D03*
X008880Y006547D03*
X008280Y006547D03*
X010180Y008247D03*
X009480Y009647D03*
D25*
X009168Y009899D02*
X008900Y009899D01*
X008900Y010057D02*
X010710Y010057D01*
X010710Y009899D02*
X009792Y009899D01*
X009818Y009873D02*
X009706Y009985D01*
X009559Y010045D01*
X009401Y010045D01*
X009254Y009985D01*
X009142Y009873D01*
X009082Y009726D01*
X009082Y009568D01*
X009121Y009473D01*
X009114Y009470D01*
X009046Y009403D01*
X009035Y009375D01*
X009023Y009403D01*
X008956Y009470D01*
X008900Y009494D01*
X008900Y010594D01*
X009336Y010594D01*
X009425Y010631D01*
X009492Y010698D01*
X009529Y010786D01*
X009529Y011748D01*
X009492Y011836D01*
X009425Y011903D01*
X010710Y011903D01*
X010710Y007898D01*
X010679Y007974D01*
X010611Y008041D01*
X010523Y008078D01*
X009874Y008078D01*
X009796Y008155D01*
X009866Y008184D01*
X009933Y008251D01*
X009970Y008339D01*
X009970Y009315D01*
X009933Y009403D01*
X009866Y009470D01*
X009842Y009480D01*
X009878Y009568D01*
X009878Y009726D01*
X009818Y009873D01*
X009873Y009740D02*
X010710Y009740D01*
X010710Y009582D02*
X009878Y009582D01*
X009913Y009423D02*
X010710Y009423D01*
X010710Y009265D02*
X009970Y009265D01*
X009970Y009106D02*
X010710Y009106D01*
X010710Y008948D02*
X009970Y008948D01*
X009970Y008789D02*
X010710Y008789D01*
X010710Y008631D02*
X009970Y008631D01*
X009970Y008472D02*
X010710Y008472D01*
X010710Y008314D02*
X009959Y008314D01*
X009797Y008155D02*
X010710Y008155D01*
X010710Y007997D02*
X010656Y007997D01*
X010710Y007265D02*
X010710Y004709D01*
X010656Y004763D01*
X010568Y004799D01*
X010280Y004799D01*
X010280Y004836D01*
X010283Y004885D01*
X010280Y004896D01*
X010280Y005535D01*
X010284Y005584D01*
X010280Y005595D01*
X010280Y005607D01*
X010262Y005651D01*
X010247Y005697D01*
X010239Y005706D01*
X010234Y005717D01*
X010200Y005751D01*
X009680Y006358D01*
X009680Y006607D01*
X009650Y006680D01*
X009686Y006768D01*
X009686Y007185D01*
X009705Y007166D01*
X009705Y006960D01*
X010132Y006960D01*
X010132Y006864D01*
X010228Y006864D01*
X010228Y006476D01*
X010499Y006476D01*
X010545Y006489D01*
X010586Y006512D01*
X010619Y006546D01*
X010643Y006587D01*
X010655Y006633D01*
X010655Y006864D01*
X010228Y006864D01*
X010228Y006960D01*
X010655Y006960D01*
X010655Y007166D01*
X010679Y007190D01*
X010710Y007265D01*
X010710Y007204D02*
X010685Y007204D01*
X010710Y007046D02*
X010655Y007046D01*
X010710Y006887D02*
X010228Y006887D01*
X010132Y006887D02*
X009686Y006887D01*
X009705Y006864D02*
X009705Y006633D01*
X009717Y006587D01*
X009741Y006546D01*
X009774Y006512D01*
X009815Y006489D01*
X009861Y006476D01*
X010132Y006476D01*
X010132Y006864D01*
X009705Y006864D01*
X009705Y006729D02*
X009670Y006729D01*
X009680Y006570D02*
X009727Y006570D01*
X009680Y006412D02*
X010710Y006412D01*
X010710Y006570D02*
X010633Y006570D01*
X010655Y006729D02*
X010710Y006729D01*
X010710Y006253D02*
X009770Y006253D01*
X009906Y006095D02*
X010710Y006095D01*
X010710Y005936D02*
X010042Y005936D01*
X010178Y005778D02*
X010710Y005778D01*
X010710Y005619D02*
X010275Y005619D01*
X010280Y005461D02*
X010710Y005461D01*
X010710Y005302D02*
X010280Y005302D01*
X010280Y005144D02*
X010710Y005144D01*
X010710Y004985D02*
X010280Y004985D01*
X010280Y004827D02*
X010710Y004827D01*
X009780Y004347D02*
X009780Y003662D01*
X009817Y003574D01*
X009840Y003550D01*
X009840Y003505D01*
X009888Y003505D01*
X009888Y003504D02*
X009888Y003504D01*
X009888Y003505D01*
X009888Y003504D02*
X009840Y003504D01*
X009840Y003459D01*
X009817Y003435D01*
X009780Y003347D01*
X009780Y003130D01*
X009740Y003147D01*
X008128Y003147D01*
X008178Y003268D01*
X008178Y003426D01*
X008118Y003573D01*
X008080Y003610D01*
X008080Y004107D01*
X008034Y004217D01*
X007934Y004317D01*
X007904Y004347D01*
X008140Y004347D01*
X008230Y004384D01*
X008320Y004347D01*
X009780Y004347D01*
X009780Y004193D02*
X008044Y004193D01*
X008080Y004034D02*
X009780Y004034D01*
X009780Y003876D02*
X008080Y003876D01*
X008080Y003717D02*
X009780Y003717D01*
X009832Y003559D02*
X008124Y003559D01*
X008178Y003400D02*
X009802Y003400D01*
X009780Y003242D02*
X008168Y003242D01*
X008149Y004351D02*
X008311Y004351D01*
X006508Y003819D02*
X006508Y003819D01*
X006508Y003819D01*
X006460Y003819D01*
X006460Y003774D01*
X006437Y003750D01*
X006400Y003662D01*
X006400Y003347D01*
X006437Y003259D01*
X006460Y003235D01*
X006460Y003190D01*
X006508Y003190D01*
X006508Y003190D01*
X006508Y003190D01*
X006460Y003190D01*
X006460Y003144D01*
X006453Y003137D01*
X006406Y003185D01*
X006280Y003237D01*
X006280Y003507D01*
X006234Y003617D01*
X006150Y003701D01*
X005204Y004647D01*
X006417Y004647D01*
X006400Y004607D01*
X006400Y003977D01*
X006437Y003888D01*
X006460Y003865D01*
X006460Y003819D01*
X006508Y003819D01*
X006449Y003876D02*
X005976Y003876D01*
X005817Y004034D02*
X006400Y004034D01*
X006400Y004193D02*
X005659Y004193D01*
X005500Y004351D02*
X006400Y004351D01*
X006400Y004510D02*
X005342Y004510D01*
X006134Y003717D02*
X006423Y003717D01*
X006400Y003559D02*
X006259Y003559D01*
X006280Y003400D02*
X006400Y003400D01*
X006454Y003242D02*
X006280Y003242D01*
X004249Y002805D02*
X004233Y002812D01*
X003927Y002812D01*
X003807Y002762D01*
X003715Y002670D01*
X003714Y002669D01*
X003679Y002684D01*
X003150Y002684D01*
X003062Y002647D01*
X003027Y002613D01*
X002986Y002624D01*
X002764Y002624D01*
X002764Y002265D01*
X002958Y002265D01*
X002958Y002229D01*
X002764Y002229D01*
X002764Y002265D01*
X002727Y002265D01*
X002727Y002624D01*
X002505Y002624D01*
X002459Y002612D01*
X002418Y002588D01*
X002385Y002554D01*
X002381Y002548D01*
X002348Y002628D01*
X002642Y002889D01*
X002650Y002893D01*
X002686Y002929D01*
X002705Y002945D01*
X002705Y002933D01*
X002717Y002887D01*
X002741Y002846D01*
X002774Y002812D01*
X002815Y002789D01*
X002861Y002776D01*
X003132Y002776D01*
X003132Y003164D01*
X003228Y003164D01*
X003228Y002776D01*
X003499Y002776D01*
X003545Y002789D01*
X003586Y002812D01*
X003619Y002846D01*
X003643Y002887D01*
X003655Y002933D01*
X003655Y003164D01*
X003228Y003164D01*
X003228Y003260D01*
X003642Y003260D01*
X003926Y002977D01*
X004010Y002893D01*
X004120Y002847D01*
X004232Y002847D01*
X004249Y002805D01*
X003978Y002925D02*
X003653Y002925D01*
X003655Y003083D02*
X003820Y003083D01*
X003661Y003242D02*
X003228Y003242D01*
X003228Y003083D02*
X003132Y003083D01*
X003132Y002925D02*
X003228Y002925D01*
X002707Y002925D02*
X002682Y002925D01*
X002503Y002766D02*
X003816Y002766D01*
X003181Y001810D02*
X003180Y001807D01*
X003180Y001784D01*
X003150Y001784D01*
X003062Y001747D01*
X003027Y001713D01*
X002986Y001724D01*
X002764Y001724D01*
X002764Y001365D01*
X002958Y001365D01*
X002958Y001329D01*
X002764Y001329D01*
X002764Y001365D01*
X002727Y001365D01*
X002727Y001329D01*
X002349Y001329D01*
X002349Y001327D01*
X001600Y001327D01*
X001600Y001367D01*
X002349Y001367D01*
X002349Y001365D01*
X002727Y001365D01*
X002727Y001724D01*
X002505Y001724D01*
X002459Y001712D01*
X002418Y001688D01*
X002385Y001654D01*
X002361Y001613D01*
X002349Y001568D01*
X002349Y001455D01*
X002348Y001459D01*
X002325Y001531D01*
X002291Y001599D01*
X002246Y001660D01*
X002193Y001713D01*
X002132Y001758D01*
X002064Y001792D01*
X002001Y001813D01*
X002186Y001889D01*
X002338Y002041D01*
X002349Y002068D01*
X002349Y002026D01*
X002361Y001981D01*
X002385Y001940D01*
X002418Y001906D01*
X002459Y001882D01*
X002505Y001870D01*
X002727Y001870D01*
X002727Y002229D01*
X002764Y002229D01*
X002764Y001870D01*
X002986Y001870D01*
X003027Y001881D01*
X003062Y001847D01*
X003150Y001810D01*
X003181Y001810D01*
X003139Y001815D02*
X002007Y001815D01*
X002248Y001657D02*
X002387Y001657D01*
X002349Y001498D02*
X002336Y001498D01*
X002365Y001974D02*
X002270Y001974D01*
X002727Y001974D02*
X002764Y001974D01*
X002764Y002132D02*
X002727Y002132D01*
X002727Y002291D02*
X002764Y002291D01*
X002764Y002449D02*
X002727Y002449D01*
X002727Y002608D02*
X002764Y002608D01*
X002452Y002608D02*
X002357Y002608D01*
X002727Y001657D02*
X002764Y001657D01*
X002764Y001498D02*
X002727Y001498D01*
X002727Y001340D02*
X001600Y001340D01*
X002764Y001340D02*
X002958Y001340D01*
X002993Y006295D02*
X002897Y006295D01*
X002897Y006576D01*
X002993Y006576D01*
X002993Y006295D01*
X002993Y006412D02*
X002897Y006412D01*
X002897Y006570D02*
X002993Y006570D01*
X002645Y006717D02*
X002620Y006710D01*
X002579Y006686D01*
X002545Y006653D01*
X002522Y006612D01*
X002509Y006566D01*
X002509Y006425D01*
X002459Y006445D01*
X002420Y006445D01*
X002420Y006454D01*
X002338Y006653D01*
X002186Y006805D01*
X001987Y006887D01*
X001545Y006887D01*
X001578Y006968D01*
X001578Y007126D01*
X001520Y007267D01*
X001560Y007267D01*
X001560Y007727D01*
X001600Y007727D01*
X001600Y007267D01*
X001918Y007267D01*
X001982Y007277D01*
X001982Y007268D01*
X002042Y007121D01*
X002154Y007009D01*
X002301Y006949D01*
X002459Y006949D01*
X002597Y007006D01*
X002623Y006979D01*
X002623Y006768D01*
X002645Y006717D01*
X002640Y006729D02*
X002262Y006729D01*
X002372Y006570D02*
X002511Y006570D01*
X002623Y006887D02*
X001545Y006887D01*
X001578Y007046D02*
X002118Y007046D01*
X002008Y007204D02*
X001546Y007204D01*
X001560Y007363D02*
X001600Y007363D01*
X001600Y007521D02*
X001560Y007521D01*
X001560Y007680D02*
X001600Y007680D01*
X001600Y007727D02*
X002256Y007727D01*
X002301Y007745D01*
X002459Y007745D01*
X002606Y007685D01*
X002623Y007667D01*
X002623Y007900D01*
X002564Y007960D01*
X002527Y008048D01*
X002527Y008557D01*
X002564Y008645D01*
X002612Y008694D01*
X002600Y008715D01*
X002587Y008761D01*
X002587Y008968D01*
X002957Y008968D01*
X003003Y008968D01*
X003003Y008749D01*
X002957Y008749D01*
X002957Y008968D01*
X002957Y009015D01*
X002587Y009015D01*
X002587Y009222D01*
X002594Y009247D01*
X002504Y009247D01*
X002324Y009067D01*
X002338Y009053D01*
X002420Y008854D01*
X002420Y008640D01*
X002338Y008441D01*
X002186Y008289D01*
X002001Y008213D01*
X002064Y008192D01*
X002132Y008158D01*
X002193Y008113D01*
X002246Y008060D01*
X002291Y007999D01*
X002325Y007931D01*
X002348Y007859D01*
X002360Y007785D01*
X002360Y007767D01*
X001600Y007767D01*
X001600Y007727D01*
X002135Y008155D02*
X002527Y008155D01*
X002527Y008314D02*
X002210Y008314D01*
X002351Y008472D02*
X002527Y008472D01*
X002558Y008631D02*
X002416Y008631D01*
X002420Y008789D02*
X002587Y008789D01*
X002587Y008948D02*
X002381Y008948D01*
X002363Y009106D02*
X002587Y009106D01*
X002957Y008948D02*
X003003Y008948D01*
X003003Y008968D02*
X003003Y009015D01*
X003373Y009015D01*
X003373Y009222D01*
X003360Y009268D01*
X003347Y009291D01*
X003350Y009293D01*
X003434Y009377D01*
X003504Y009447D01*
X005081Y009447D01*
X005037Y009403D01*
X005000Y009315D01*
X005000Y008339D01*
X005037Y008251D01*
X005069Y008219D01*
X005068Y008219D01*
X004980Y008182D01*
X004913Y008114D01*
X004876Y008026D01*
X004876Y006868D01*
X004913Y006780D01*
X004945Y006747D01*
X004710Y006747D01*
X004713Y006748D01*
X004754Y006771D01*
X004788Y006805D01*
X004812Y006846D01*
X004824Y006892D01*
X004824Y007370D01*
X004406Y007370D01*
X004406Y007524D01*
X004824Y007524D01*
X004824Y008002D01*
X004812Y008048D01*
X004788Y008089D01*
X004754Y008123D01*
X004713Y008146D01*
X004667Y008159D01*
X004406Y008159D01*
X004406Y007525D01*
X004251Y007525D01*
X004251Y008159D01*
X003990Y008159D01*
X003944Y008146D01*
X003903Y008123D01*
X003870Y008089D01*
X003846Y008048D01*
X003834Y008002D01*
X003834Y007524D01*
X004251Y007524D01*
X004251Y007370D01*
X003834Y007370D01*
X003834Y007157D01*
X003677Y007274D01*
X003650Y007301D01*
X003630Y007310D01*
X003612Y007323D01*
X003575Y007332D01*
X003540Y007347D01*
X003518Y007347D01*
X003501Y007351D01*
X003537Y007437D01*
X003537Y007926D01*
X003500Y008014D01*
X003433Y008082D01*
X003433Y008557D01*
X003396Y008645D01*
X003348Y008694D01*
X003360Y008715D01*
X003373Y008761D01*
X003373Y008968D01*
X003003Y008968D01*
X003003Y008789D02*
X002957Y008789D01*
X003373Y008789D02*
X004530Y008789D01*
X004530Y008787D02*
X004150Y008787D01*
X004150Y008363D01*
X004162Y008317D01*
X004186Y008276D01*
X004220Y008243D01*
X004261Y008219D01*
X004306Y008207D01*
X004530Y008207D01*
X004530Y008787D01*
X004530Y008867D01*
X004150Y008867D01*
X004150Y009291D01*
X004162Y009336D01*
X004186Y009377D01*
X004220Y009411D01*
X004261Y009435D01*
X004306Y009447D01*
X004530Y009447D01*
X004530Y008867D01*
X004610Y008867D01*
X004610Y009447D01*
X004834Y009447D01*
X004880Y009435D01*
X004921Y009411D01*
X004954Y009377D01*
X004978Y009336D01*
X004990Y009291D01*
X004990Y008867D01*
X004610Y008867D01*
X004610Y008787D01*
X004610Y008207D01*
X004834Y008207D01*
X004880Y008219D01*
X004921Y008243D01*
X004954Y008276D01*
X004978Y008317D01*
X004990Y008363D01*
X004990Y008787D01*
X004610Y008787D01*
X004530Y008787D01*
X004610Y008789D02*
X005000Y008789D01*
X004990Y008631D02*
X005000Y008631D01*
X004990Y008472D02*
X005000Y008472D01*
X005011Y008314D02*
X004976Y008314D01*
X004953Y008155D02*
X004680Y008155D01*
X004610Y008314D02*
X004530Y008314D01*
X004530Y008472D02*
X004610Y008472D01*
X004610Y008631D02*
X004530Y008631D01*
X004530Y008948D02*
X004610Y008948D01*
X004610Y009106D02*
X004530Y009106D01*
X004530Y009265D02*
X004610Y009265D01*
X004610Y009423D02*
X004530Y009423D01*
X004241Y009423D02*
X003480Y009423D01*
X003434Y009377D02*
X003434Y009377D01*
X003361Y009265D02*
X004150Y009265D01*
X004150Y009106D02*
X003373Y009106D01*
X003373Y008948D02*
X004150Y008948D01*
X004150Y008631D02*
X003402Y008631D01*
X003433Y008472D02*
X004150Y008472D01*
X004165Y008314D02*
X003433Y008314D01*
X003433Y008155D02*
X003977Y008155D01*
X003834Y007997D02*
X003507Y007997D01*
X003537Y007838D02*
X003834Y007838D01*
X003834Y007680D02*
X003537Y007680D01*
X003537Y007521D02*
X004251Y007521D01*
X004406Y007521D02*
X004876Y007521D01*
X004876Y007363D02*
X004824Y007363D01*
X004824Y007204D02*
X004876Y007204D01*
X004876Y007046D02*
X004824Y007046D01*
X004822Y006887D02*
X004876Y006887D01*
X004876Y007680D02*
X004824Y007680D01*
X004824Y007838D02*
X004876Y007838D01*
X004876Y007997D02*
X004824Y007997D01*
X004406Y007997D02*
X004251Y007997D01*
X004251Y008155D02*
X004406Y008155D01*
X004406Y007838D02*
X004251Y007838D01*
X004251Y007680D02*
X004406Y007680D01*
X003834Y007363D02*
X003506Y007363D01*
X003771Y007204D02*
X003834Y007204D01*
X002623Y007680D02*
X002611Y007680D01*
X002623Y007838D02*
X002352Y007838D01*
X002292Y007997D02*
X002549Y007997D01*
X000780Y007047D02*
X000780Y010747D01*
X001280Y011247D01*
X001580Y011247D01*
X001580Y011547D01*
X001980Y011847D01*
X004180Y011847D01*
X004480Y011647D01*
X004480Y011347D01*
X004580Y011247D01*
X005480Y011247D01*
X005480Y011267D01*
X006236Y010594D02*
X006325Y010631D01*
X006392Y010698D01*
X006429Y010786D01*
X006429Y011748D01*
X006392Y011836D01*
X006325Y011903D01*
X007735Y011903D01*
X007668Y011836D01*
X007631Y011748D01*
X007631Y010786D01*
X007668Y010698D01*
X007735Y010631D01*
X007824Y010594D01*
X008260Y010594D01*
X008260Y009494D01*
X008204Y009470D01*
X008137Y009403D01*
X008100Y009315D01*
X008100Y008339D01*
X008137Y008251D01*
X008204Y008184D01*
X008292Y008147D01*
X008456Y008147D01*
X008606Y007997D01*
X008576Y007926D01*
X008576Y007229D01*
X008524Y007207D01*
X008524Y007270D01*
X008106Y007270D01*
X008106Y007424D01*
X008524Y007424D01*
X008524Y007902D01*
X008512Y007948D01*
X008488Y007989D01*
X008454Y008023D01*
X008413Y008046D01*
X008367Y008059D01*
X008106Y008059D01*
X008106Y007425D01*
X007951Y007425D01*
X007951Y008059D01*
X007690Y008059D01*
X007644Y008046D01*
X007603Y008023D01*
X007570Y007989D01*
X007546Y007948D01*
X007534Y007902D01*
X007534Y007424D01*
X007951Y007424D01*
X007951Y007270D01*
X007534Y007270D01*
X007534Y006792D01*
X007546Y006747D01*
X005917Y006747D01*
X005950Y006780D01*
X005986Y006868D01*
X005986Y007773D01*
X006026Y007677D01*
X006110Y007593D01*
X006145Y007578D01*
X006181Y007490D01*
X006205Y007466D01*
X006205Y007260D01*
X006632Y007260D01*
X006632Y007164D01*
X006728Y007164D01*
X006728Y006776D01*
X006999Y006776D01*
X007045Y006789D01*
X007086Y006812D01*
X007119Y006846D01*
X007143Y006887D01*
X007155Y006933D01*
X007155Y007164D01*
X006728Y007164D01*
X006728Y007260D01*
X007155Y007260D01*
X007155Y007466D01*
X007179Y007490D01*
X007202Y007547D01*
X007240Y007547D01*
X007350Y007593D01*
X007434Y007677D01*
X007480Y007787D01*
X007480Y008207D01*
X007630Y008207D01*
X007630Y008787D01*
X007710Y008787D01*
X007710Y008207D01*
X007934Y008207D01*
X007980Y008219D01*
X008021Y008243D01*
X008054Y008276D01*
X008078Y008317D01*
X008090Y008363D01*
X008090Y008787D01*
X007710Y008787D01*
X007710Y008867D01*
X007710Y009314D01*
X007706Y009309D01*
X007630Y009278D01*
X007630Y008867D01*
X007710Y008867D01*
X008090Y008867D01*
X008090Y009291D01*
X008078Y009336D01*
X008054Y009377D01*
X008021Y009411D01*
X007980Y009435D01*
X007934Y009447D01*
X007828Y009447D01*
X007878Y009568D01*
X007878Y009726D01*
X007818Y009873D01*
X007706Y009985D01*
X007559Y010045D01*
X007506Y010045D01*
X007234Y010317D01*
X007150Y010401D01*
X007040Y010447D01*
X004504Y010447D01*
X004034Y010917D01*
X003982Y010970D01*
X004060Y011048D01*
X004060Y011227D01*
X003600Y011227D01*
X003600Y011267D01*
X004060Y011267D01*
X004060Y011446D01*
X003979Y011527D01*
X004083Y011527D01*
X004160Y011476D01*
X004160Y011283D01*
X004209Y011166D01*
X004309Y011066D01*
X004399Y010976D01*
X004516Y010927D01*
X004531Y010927D01*
X004531Y010786D01*
X004568Y010698D01*
X004635Y010631D01*
X004724Y010594D01*
X006236Y010594D01*
X006385Y010691D02*
X007675Y010691D01*
X007631Y010850D02*
X006429Y010850D01*
X006429Y011008D02*
X007631Y011008D01*
X007631Y011167D02*
X006429Y011167D01*
X006429Y011325D02*
X007631Y011325D01*
X007631Y011484D02*
X006429Y011484D01*
X006429Y011642D02*
X007631Y011642D01*
X007653Y011801D02*
X006407Y011801D01*
X007177Y010374D02*
X008260Y010374D01*
X008260Y010216D02*
X007336Y010216D01*
X007494Y010057D02*
X008260Y010057D01*
X008260Y009899D02*
X007792Y009899D01*
X007873Y009740D02*
X008260Y009740D01*
X008260Y009582D02*
X007878Y009582D01*
X008000Y009423D02*
X008157Y009423D01*
X008100Y009265D02*
X008090Y009265D01*
X008090Y009106D02*
X008100Y009106D01*
X008090Y008948D02*
X008100Y008948D01*
X008100Y008789D02*
X007710Y008789D01*
X007710Y008631D02*
X007630Y008631D01*
X007630Y008472D02*
X007710Y008472D01*
X007710Y008314D02*
X007630Y008314D01*
X007480Y008155D02*
X008273Y008155D01*
X008480Y007997D02*
X008605Y007997D01*
X008576Y007838D02*
X008524Y007838D01*
X008524Y007680D02*
X008576Y007680D01*
X008576Y007521D02*
X008524Y007521D01*
X008576Y007363D02*
X008106Y007363D01*
X008106Y007270D02*
X007951Y007270D01*
X007951Y006782D01*
X008054Y006885D01*
X008106Y006906D01*
X008106Y007270D01*
X008106Y007204D02*
X007951Y007204D01*
X007951Y007046D02*
X008106Y007046D01*
X008060Y006887D02*
X007951Y006887D01*
X007951Y007363D02*
X007155Y007363D01*
X007192Y007521D02*
X007534Y007521D01*
X007534Y007680D02*
X007435Y007680D01*
X007480Y007838D02*
X007534Y007838D01*
X007577Y007997D02*
X007480Y007997D01*
X007951Y007997D02*
X008106Y007997D01*
X008106Y007838D02*
X007951Y007838D01*
X007951Y007680D02*
X008106Y007680D01*
X008106Y007521D02*
X007951Y007521D01*
X007534Y007204D02*
X006728Y007204D01*
X006632Y007204D02*
X005986Y007204D01*
X005986Y007046D02*
X006205Y007046D01*
X006205Y006933D02*
X006205Y007164D01*
X006632Y007164D01*
X006632Y006776D01*
X006361Y006776D01*
X006315Y006789D01*
X006274Y006812D01*
X006241Y006846D01*
X006217Y006887D01*
X006205Y006933D01*
X006217Y006887D02*
X005986Y006887D01*
X005986Y007363D02*
X006205Y007363D01*
X006168Y007521D02*
X005986Y007521D01*
X005986Y007680D02*
X006025Y007680D01*
X006145Y007578D02*
X006145Y007578D01*
X006632Y007046D02*
X006728Y007046D01*
X006728Y006887D02*
X006632Y006887D01*
X007143Y006887D02*
X007534Y006887D01*
X007534Y007046D02*
X007155Y007046D01*
X008076Y008314D02*
X008111Y008314D01*
X008100Y008472D02*
X008090Y008472D01*
X008090Y008631D02*
X008100Y008631D01*
X007710Y008948D02*
X007630Y008948D01*
X007630Y009106D02*
X007710Y009106D01*
X007710Y009265D02*
X007630Y009265D01*
X008580Y008827D02*
X008580Y011147D01*
X008580Y011267D01*
X008580Y011347D01*
X008900Y010533D02*
X010710Y010533D01*
X010710Y010691D02*
X009485Y010691D01*
X009529Y010850D02*
X010710Y010850D01*
X010710Y011008D02*
X009529Y011008D01*
X009529Y011167D02*
X010710Y011167D01*
X010710Y011325D02*
X009529Y011325D01*
X009529Y011484D02*
X010710Y011484D01*
X010710Y011642D02*
X009529Y011642D01*
X009507Y011801D02*
X010710Y011801D01*
X010710Y010374D02*
X008900Y010374D01*
X008900Y010216D02*
X010710Y010216D01*
X009087Y009740D02*
X008900Y009740D01*
X008900Y009582D02*
X009082Y009582D01*
X009067Y009423D02*
X009003Y009423D01*
X008260Y010533D02*
X004419Y010533D01*
X004575Y010691D02*
X004260Y010691D01*
X004102Y010850D02*
X004531Y010850D01*
X004366Y011008D02*
X004020Y011008D01*
X004060Y011167D02*
X004208Y011167D01*
X004160Y011325D02*
X004060Y011325D01*
X004022Y011484D02*
X004148Y011484D01*
X004900Y009423D02*
X005057Y009423D01*
X005000Y009265D02*
X004990Y009265D01*
X004990Y009106D02*
X005000Y009106D01*
X004990Y008948D02*
X005000Y008948D01*
X009686Y007046D02*
X009705Y007046D01*
X010132Y006729D02*
X010228Y006729D01*
X010228Y006570D02*
X010132Y006570D01*
M02*
