G75*
G70*
%OFA0B0*%
%FSLAX24Y24*%
%IPPOS*%
%LPD*%
%AMOC8*
5,1,8,0,0,1.08239X$1,22.5*
%
%ADD10C,0.0000*%
%ADD11C,0.0640*%
%ADD12C,0.0166*%
%ADD13C,0.0201*%
%ADD14C,0.0106*%
%ADD15C,0.0154*%
%ADD16C,0.0126*%
%ADD17C,0.0130*%
%ADD18R,0.0465X0.0453*%
%ADD19OC8,0.0640*%
D10*
X000180Y000547D02*
X000180Y012143D01*
X010950Y012143D01*
X010950Y000547D01*
X000180Y000547D01*
D11*
X001280Y001347D02*
X001880Y001347D01*
X001880Y002347D02*
X001280Y002347D01*
X001280Y003347D02*
X001880Y003347D01*
X001880Y004347D02*
X001280Y004347D01*
X001280Y005347D02*
X001880Y005347D01*
X001880Y006347D02*
X001280Y006347D01*
X001280Y007747D02*
X001880Y007747D01*
X001880Y008747D02*
X001280Y008747D01*
D12*
X004308Y010678D02*
X004694Y010678D01*
X004308Y010678D02*
X004308Y011654D01*
X004694Y011654D01*
X004694Y010678D01*
X004694Y010843D02*
X004308Y010843D01*
X004308Y011008D02*
X004694Y011008D01*
X004694Y011173D02*
X004308Y011173D01*
X004308Y011338D02*
X004694Y011338D01*
X004694Y011503D02*
X004308Y011503D01*
D13*
X009699Y011079D02*
X010169Y011079D01*
X009699Y011079D02*
X009699Y011667D01*
X010169Y011667D01*
X010169Y011079D01*
X010169Y011279D02*
X009699Y011279D01*
X009699Y011479D02*
X010169Y011479D01*
D14*
X004724Y009458D02*
X004278Y009458D01*
X004278Y009706D01*
X004724Y009706D01*
X004724Y009458D01*
X004724Y009563D02*
X004278Y009563D01*
X004278Y009668D02*
X004724Y009668D01*
D15*
X004700Y006962D02*
X004302Y006962D01*
X004302Y007320D01*
X004700Y007320D01*
X004700Y006962D01*
X004700Y007115D02*
X004302Y007115D01*
X004302Y007268D02*
X004700Y007268D01*
D16*
X004839Y005018D02*
X005029Y005018D01*
X004839Y005018D02*
X004839Y005562D01*
X005029Y005562D01*
X005029Y005018D01*
X005029Y005143D02*
X004839Y005143D01*
X004839Y005268D02*
X005029Y005268D01*
X005029Y005393D02*
X004839Y005393D01*
X004839Y005518D02*
X005029Y005518D01*
X005213Y005018D02*
X005403Y005018D01*
X005213Y005018D02*
X005213Y005562D01*
X005403Y005562D01*
X005403Y005018D01*
X005403Y005143D02*
X005213Y005143D01*
X005213Y005268D02*
X005403Y005268D01*
X005403Y005393D02*
X005213Y005393D01*
X005213Y005518D02*
X005403Y005518D01*
X005646Y005018D02*
X005836Y005018D01*
X005646Y005018D02*
X005646Y005562D01*
X005836Y005562D01*
X005836Y005018D01*
X005836Y005143D02*
X005646Y005143D01*
X005646Y005268D02*
X005836Y005268D01*
X005836Y005393D02*
X005646Y005393D01*
X005646Y005518D02*
X005836Y005518D01*
X006079Y005018D02*
X006269Y005018D01*
X006079Y005018D02*
X006079Y005562D01*
X006269Y005562D01*
X006269Y005018D01*
X006269Y005143D02*
X006079Y005143D01*
X006079Y005268D02*
X006269Y005268D01*
X006269Y005393D02*
X006079Y005393D01*
X006079Y005518D02*
X006269Y005518D01*
X006513Y005018D02*
X006703Y005018D01*
X006513Y005018D02*
X006513Y005562D01*
X006703Y005562D01*
X006703Y005018D01*
X006703Y005143D02*
X006513Y005143D01*
X006513Y005268D02*
X006703Y005268D01*
X006703Y005393D02*
X006513Y005393D01*
X006513Y005518D02*
X006703Y005518D01*
X006946Y005018D02*
X007136Y005018D01*
X006946Y005018D02*
X006946Y005562D01*
X007136Y005562D01*
X007136Y005018D01*
X007136Y005143D02*
X006946Y005143D01*
X006946Y005268D02*
X007136Y005268D01*
X007136Y005393D02*
X006946Y005393D01*
X006946Y005518D02*
X007136Y005518D01*
X007379Y005018D02*
X007569Y005018D01*
X007379Y005018D02*
X007379Y005562D01*
X007569Y005562D01*
X007569Y005018D01*
X007569Y005143D02*
X007379Y005143D01*
X007379Y005268D02*
X007569Y005268D01*
X007569Y005393D02*
X007379Y005393D01*
X007379Y005518D02*
X007569Y005518D01*
X007812Y005018D02*
X008002Y005018D01*
X007812Y005018D02*
X007812Y005562D01*
X008002Y005562D01*
X008002Y005018D01*
X008002Y005143D02*
X007812Y005143D01*
X007812Y005268D02*
X008002Y005268D01*
X008002Y005393D02*
X007812Y005393D01*
X007812Y005518D02*
X008002Y005518D01*
X008245Y005018D02*
X008435Y005018D01*
X008245Y005018D02*
X008245Y005562D01*
X008435Y005562D01*
X008435Y005018D01*
X008435Y005143D02*
X008245Y005143D01*
X008245Y005268D02*
X008435Y005268D01*
X008435Y005393D02*
X008245Y005393D01*
X008245Y005518D02*
X008435Y005518D01*
D17*
X008798Y005020D02*
X009102Y005020D01*
X008798Y005020D02*
X008798Y005560D01*
X009102Y005560D01*
X009102Y005020D01*
X009102Y005149D02*
X008798Y005149D01*
X008798Y005278D02*
X009102Y005278D01*
X009102Y005407D02*
X008798Y005407D01*
X008798Y005536D02*
X009102Y005536D01*
D18*
X008280Y003992D03*
X008280Y003303D03*
X008280Y001792D03*
X008280Y001103D03*
X006480Y001103D03*
X006480Y001792D03*
X006480Y003303D03*
X006480Y003992D03*
X004780Y003992D03*
X004780Y003303D03*
X004780Y001792D03*
X004780Y001103D03*
D19*
X003580Y010247D03*
X003580Y011247D03*
X002580Y011247D03*
X002580Y010247D03*
X001580Y010247D03*
X001580Y011247D03*
M02*
