%
M48
M72
T01C0.0197
T02C0.0400
%
T01
X3380Y4547
X3980Y4547
X4480Y4547
X4980Y5947
X5880Y5847
X6080Y6847
X4880Y7547
X3980Y8847
X3380Y9347
X2480Y9247
X1880Y9747
X1280Y9447
X2380Y7347
X1180Y7047
X5380Y2847
X6180Y2847
X7080Y1547
X7780Y3347
X9280Y3647
X9680Y2447
X10180Y1847
X8880Y6547
X8280Y6547
X7080Y8947
X6980Y9647
X7480Y9647
X7980Y9647
X9480Y9647
X10180Y8247
X5880Y4547
T02
X1580Y1347
X1580Y2347
X1580Y3347
X1580Y4347
X1580Y5347
X1580Y6347
X1580Y7747
X1580Y8747
X1580Y10247
X1580Y11247
X2580Y11247
X2580Y10247
X3580Y10247
X3580Y11247
M30
