G75*
%MOIN*%
%OFA0B0*%
%FSLAX24Y24*%
%IPPOS*%
%LPD*%
%AMOC8*
5,1,8,0,0,1.08239X$1,22.5*
%
%ADD10C,0.0000*%
%ADD11R,0.0540X0.0260*%
%ADD12R,0.0260X0.0540*%
%ADD13C,0.0195*%
%ADD14R,0.0473X0.0434*%
%ADD15R,0.0631X0.0552*%
%ADD16R,0.0465X0.0453*%
%ADD17C,0.0640*%
%ADD18R,0.0520X0.0920*%
%ADD19R,0.1457X0.0906*%
%ADD20R,0.0670X0.1103*%
%ADD21R,0.0552X0.0631*%
%ADD22OC8,0.0640*%
D10*
X000180Y000547D02*
X000180Y012143D01*
X010950Y012143D01*
X010950Y000547D01*
X000180Y000547D01*
D11*
X006890Y002245D03*
X006890Y002560D03*
X006890Y002875D03*
X006890Y003190D03*
X006890Y003504D03*
X006890Y003819D03*
X006890Y004134D03*
X006890Y004449D03*
X010270Y004449D03*
X010270Y004134D03*
X010270Y003819D03*
X010270Y003504D03*
X010270Y003190D03*
X010270Y002875D03*
X010270Y002560D03*
X010270Y002245D03*
D12*
X009682Y001657D03*
X009367Y001657D03*
X009052Y001657D03*
X008737Y001657D03*
X008423Y001657D03*
X008108Y001657D03*
X007793Y001657D03*
X007478Y001657D03*
X007478Y005037D03*
X007793Y005037D03*
X008108Y005037D03*
X008423Y005037D03*
X008737Y005037D03*
X009052Y005037D03*
X009367Y005037D03*
X009682Y005037D03*
D13*
X004978Y002495D02*
X004978Y002199D01*
X004782Y002199D01*
X004782Y002495D01*
X004978Y002495D01*
X004978Y002393D02*
X004782Y002393D01*
X004178Y002495D02*
X004178Y002199D01*
X003982Y002199D01*
X003982Y002495D01*
X004178Y002495D01*
X004178Y002393D02*
X003982Y002393D01*
X004178Y001495D02*
X004178Y001199D01*
X003982Y001199D01*
X003982Y001495D01*
X004178Y001495D01*
X004178Y001393D02*
X003982Y001393D01*
X004978Y001495D02*
X004978Y001199D01*
X004782Y001199D01*
X004782Y001495D01*
X004978Y001495D01*
X004978Y001393D02*
X004782Y001393D01*
D14*
X005480Y001412D03*
X005480Y002082D03*
X004680Y003112D03*
X004680Y003782D03*
X003415Y002247D03*
X002745Y002247D03*
X002745Y001347D03*
X003415Y001347D03*
X003080Y007012D03*
X003080Y007682D03*
D15*
X003180Y003882D03*
X003180Y003212D03*
X006680Y007212D03*
X006680Y007882D03*
X010180Y007582D03*
X010180Y006912D03*
D16*
X002980Y008303D03*
X002980Y008992D03*
D17*
X001880Y008747D02*
X001280Y008747D01*
X001280Y007747D02*
X001880Y007747D01*
X001880Y006347D02*
X001280Y006347D01*
X001280Y005347D02*
X001880Y005347D01*
X001880Y004347D02*
X001280Y004347D01*
X001280Y003347D02*
X001880Y003347D01*
X001880Y002347D02*
X001280Y002347D01*
X001280Y001347D02*
X001880Y001347D01*
D18*
X004570Y008827D03*
X005480Y008827D03*
X006390Y008827D03*
X007670Y008827D03*
X008580Y008827D03*
X009490Y008827D03*
D19*
X008580Y011267D03*
X005480Y011267D03*
D20*
X005431Y007447D03*
X004329Y007447D03*
X008029Y007347D03*
X009131Y007347D03*
D21*
X003615Y006247D03*
X002945Y006247D03*
D22*
X002580Y010247D03*
X002580Y011247D03*
X001580Y011247D03*
X001580Y010247D03*
X003580Y010247D03*
X003580Y011247D03*
M02*
