G75*
G70*
%OFA0B0*%
%FSLAX24Y24*%
%IPPOS*%
%LPD*%
%AMOC8*
5,1,8,0,0,1.08239X$1,22.5*
%
%ADD10C,0.0000*%
%ADD11C,0.0600*%
%ADD12C,0.0154*%
%ADD13C,0.0189*%
%ADD14C,0.0094*%
%ADD15C,0.0142*%
%ADD16C,0.0110*%
%ADD17C,0.0118*%
%ADD18R,0.0425X0.0413*%
%ADD19OC8,0.0600*%
%ADD20C,0.0120*%
%ADD21C,0.0317*%
%ADD22C,0.0160*%
D10*
X000180Y000547D02*
X000180Y012143D01*
X010950Y012143D01*
X010950Y000547D01*
X000180Y000547D01*
D11*
X001280Y001347D02*
X001880Y001347D01*
X001880Y002347D02*
X001280Y002347D01*
X001280Y003347D02*
X001880Y003347D01*
X001880Y004347D02*
X001280Y004347D01*
X001280Y005347D02*
X001880Y005347D01*
X001880Y006347D02*
X001280Y006347D01*
X001280Y007747D02*
X001880Y007747D01*
X001880Y008747D02*
X001280Y008747D01*
D12*
X004322Y010692D02*
X004680Y010692D01*
X004322Y010692D02*
X004322Y011640D01*
X004680Y011640D01*
X004680Y010692D01*
X004680Y010845D02*
X004322Y010845D01*
X004322Y010998D02*
X004680Y010998D01*
X004680Y011151D02*
X004322Y011151D01*
X004322Y011304D02*
X004680Y011304D01*
X004680Y011457D02*
X004322Y011457D01*
X004322Y011610D02*
X004680Y011610D01*
D13*
X009713Y011093D02*
X010155Y011093D01*
X009713Y011093D02*
X009713Y011653D01*
X010155Y011653D01*
X010155Y011093D01*
X010155Y011281D02*
X009713Y011281D01*
X009713Y011469D02*
X010155Y011469D01*
D14*
X004710Y009472D02*
X004292Y009472D01*
X004292Y009692D01*
X004710Y009692D01*
X004710Y009472D01*
X004710Y009565D02*
X004292Y009565D01*
X004292Y009658D02*
X004710Y009658D01*
D15*
X004686Y006976D02*
X004316Y006976D01*
X004316Y007306D01*
X004686Y007306D01*
X004686Y006976D01*
X004686Y007117D02*
X004316Y007117D01*
X004316Y007258D02*
X004686Y007258D01*
D16*
X004851Y005030D02*
X005017Y005030D01*
X004851Y005030D02*
X004851Y005550D01*
X005017Y005550D01*
X005017Y005030D01*
X005017Y005139D02*
X004851Y005139D01*
X004851Y005248D02*
X005017Y005248D01*
X005017Y005357D02*
X004851Y005357D01*
X004851Y005466D02*
X005017Y005466D01*
X005225Y005030D02*
X005391Y005030D01*
X005225Y005030D02*
X005225Y005550D01*
X005391Y005550D01*
X005391Y005030D01*
X005391Y005139D02*
X005225Y005139D01*
X005225Y005248D02*
X005391Y005248D01*
X005391Y005357D02*
X005225Y005357D01*
X005225Y005466D02*
X005391Y005466D01*
X005658Y005030D02*
X005824Y005030D01*
X005658Y005030D02*
X005658Y005550D01*
X005824Y005550D01*
X005824Y005030D01*
X005824Y005139D02*
X005658Y005139D01*
X005658Y005248D02*
X005824Y005248D01*
X005824Y005357D02*
X005658Y005357D01*
X005658Y005466D02*
X005824Y005466D01*
X006091Y005030D02*
X006257Y005030D01*
X006091Y005030D02*
X006091Y005550D01*
X006257Y005550D01*
X006257Y005030D01*
X006257Y005139D02*
X006091Y005139D01*
X006091Y005248D02*
X006257Y005248D01*
X006257Y005357D02*
X006091Y005357D01*
X006091Y005466D02*
X006257Y005466D01*
X006525Y005030D02*
X006691Y005030D01*
X006525Y005030D02*
X006525Y005550D01*
X006691Y005550D01*
X006691Y005030D01*
X006691Y005139D02*
X006525Y005139D01*
X006525Y005248D02*
X006691Y005248D01*
X006691Y005357D02*
X006525Y005357D01*
X006525Y005466D02*
X006691Y005466D01*
X006958Y005030D02*
X007124Y005030D01*
X006958Y005030D02*
X006958Y005550D01*
X007124Y005550D01*
X007124Y005030D01*
X007124Y005139D02*
X006958Y005139D01*
X006958Y005248D02*
X007124Y005248D01*
X007124Y005357D02*
X006958Y005357D01*
X006958Y005466D02*
X007124Y005466D01*
X007391Y005030D02*
X007557Y005030D01*
X007391Y005030D02*
X007391Y005550D01*
X007557Y005550D01*
X007557Y005030D01*
X007557Y005139D02*
X007391Y005139D01*
X007391Y005248D02*
X007557Y005248D01*
X007557Y005357D02*
X007391Y005357D01*
X007391Y005466D02*
X007557Y005466D01*
X007824Y005030D02*
X007990Y005030D01*
X007824Y005030D02*
X007824Y005550D01*
X007990Y005550D01*
X007990Y005030D01*
X007990Y005139D02*
X007824Y005139D01*
X007824Y005248D02*
X007990Y005248D01*
X007990Y005357D02*
X007824Y005357D01*
X007824Y005466D02*
X007990Y005466D01*
X008257Y005030D02*
X008423Y005030D01*
X008257Y005030D02*
X008257Y005550D01*
X008423Y005550D01*
X008423Y005030D01*
X008423Y005139D02*
X008257Y005139D01*
X008257Y005248D02*
X008423Y005248D01*
X008423Y005357D02*
X008257Y005357D01*
X008257Y005466D02*
X008423Y005466D01*
D17*
X008812Y005034D02*
X009088Y005034D01*
X008812Y005034D02*
X008812Y005546D01*
X009088Y005546D01*
X009088Y005034D01*
X009088Y005151D02*
X008812Y005151D01*
X008812Y005268D02*
X009088Y005268D01*
X009088Y005385D02*
X008812Y005385D01*
X008812Y005502D02*
X009088Y005502D01*
D18*
X008280Y003992D03*
X008280Y003303D03*
X008280Y001792D03*
X008280Y001103D03*
X006480Y001103D03*
X006480Y001792D03*
X006480Y003303D03*
X006480Y003992D03*
X004780Y003992D03*
X004780Y003303D03*
X004780Y001792D03*
X004780Y001103D03*
D19*
X003580Y010247D03*
X003580Y011247D03*
X002580Y011247D03*
X002580Y010247D03*
X001580Y010247D03*
X001580Y011247D03*
D20*
X001280Y011747D02*
X002980Y011747D01*
X003580Y011247D01*
X004480Y011247D01*
X004501Y011166D01*
X004480Y011147D01*
X004480Y010447D01*
X003880Y009847D01*
X003880Y009147D01*
X004180Y008847D01*
X003980Y008847D01*
X003980Y007247D01*
X004080Y007147D01*
X004480Y007147D01*
X004501Y007141D01*
X004580Y007147D01*
X005380Y007147D01*
X005880Y006647D01*
X006080Y006847D01*
X005880Y006647D02*
X006180Y006347D01*
X006180Y005347D01*
X006174Y005290D01*
X006180Y005247D01*
X006180Y004647D01*
X006080Y004547D01*
X005880Y004547D01*
X005780Y004147D02*
X005580Y003947D01*
X004780Y003947D01*
X004780Y003992D01*
X004780Y003947D02*
X004280Y003947D01*
X004180Y003847D01*
X004180Y001847D01*
X004280Y001747D01*
X004780Y001747D01*
X004780Y001792D01*
X004780Y001147D02*
X004780Y001103D01*
X004780Y001147D02*
X003880Y001147D01*
X003680Y001347D01*
X001580Y001347D01*
X000580Y002347D01*
X000580Y009047D01*
X000880Y009347D01*
X000880Y011247D01*
X001280Y011747D01*
X001580Y010247D02*
X002680Y009147D01*
X002680Y006347D01*
X002380Y006047D01*
X002080Y005847D02*
X000980Y005847D01*
X000780Y006047D01*
X000780Y008947D01*
X001280Y009447D01*
X002580Y010247D02*
X002880Y009947D01*
X002880Y005847D01*
X003980Y004747D01*
X003980Y004547D01*
X004480Y004547D02*
X003080Y005947D01*
X003080Y010447D01*
X002580Y010947D01*
X002580Y011247D01*
X002380Y007347D02*
X002380Y007047D01*
X001180Y007047D01*
X002080Y005847D02*
X003380Y004547D01*
X004780Y003347D02*
X004780Y003303D01*
X004780Y003347D02*
X005380Y003347D01*
X005380Y002847D01*
X005780Y001847D02*
X005880Y001747D01*
X006480Y001747D01*
X006480Y001792D01*
X006480Y001147D02*
X006480Y001103D01*
X006480Y001147D02*
X008280Y001147D01*
X008280Y001103D01*
X008280Y001147D02*
X008980Y001747D01*
X008980Y003647D01*
X009280Y003647D01*
X008980Y003647D02*
X008980Y005247D01*
X008950Y005290D01*
X009380Y005747D02*
X009680Y005447D01*
X009680Y002347D01*
X010180Y001847D02*
X010180Y006747D01*
X007480Y009447D01*
X007480Y009647D01*
X007980Y009647D02*
X007980Y009247D01*
X008780Y008447D01*
X008980Y008247D01*
X010180Y008247D01*
X008780Y008447D02*
X009980Y009647D01*
X009980Y011347D01*
X009934Y011373D01*
X009080Y010047D02*
X009480Y009647D01*
X009080Y010047D02*
X006880Y010047D01*
X006580Y009747D01*
X006580Y009547D01*
X006980Y009147D01*
X006980Y008947D01*
X007080Y008947D01*
X006980Y009647D02*
X008880Y007747D01*
X008880Y006547D01*
X008280Y006547D02*
X007480Y006547D01*
X007080Y006147D01*
X007080Y005347D01*
X007041Y005290D01*
X007474Y005290D02*
X007480Y005247D01*
X007480Y004347D01*
X007080Y003947D01*
X006480Y003947D01*
X006480Y003992D01*
X006480Y003947D02*
X005880Y003947D01*
X005780Y003847D01*
X005780Y001847D01*
X006180Y002847D02*
X006980Y002847D01*
X007080Y002747D01*
X007080Y003347D01*
X006480Y003347D01*
X006480Y003303D01*
X007080Y002747D02*
X007080Y001547D01*
X007380Y001847D02*
X007580Y001747D01*
X008280Y001747D01*
X008280Y001792D01*
X007380Y001847D02*
X007380Y003847D01*
X007480Y003947D01*
X007880Y003947D01*
X007880Y005247D01*
X007907Y005290D01*
X008280Y003992D02*
X008280Y003947D01*
X007880Y003947D01*
X007780Y003347D02*
X008280Y003347D01*
X008280Y003303D01*
X006580Y005247D02*
X006608Y005290D01*
X006580Y005247D02*
X006580Y004647D01*
X006480Y004547D01*
X006380Y004547D01*
X005980Y004147D01*
X005780Y004147D01*
X005741Y005290D02*
X005780Y005347D01*
X005780Y005947D01*
X006480Y001147D02*
X004780Y001147D01*
D21*
X005380Y002847D03*
X006180Y002847D03*
X007080Y001547D03*
X007780Y003347D03*
X009280Y003647D03*
X009680Y002347D03*
X010180Y001847D03*
X009380Y005747D03*
X008880Y006547D03*
X008280Y006547D03*
X007080Y008947D03*
X006980Y009647D03*
X007480Y009647D03*
X007980Y009647D03*
X009480Y009647D03*
X010180Y008247D03*
X006080Y006847D03*
X005780Y005947D03*
X005880Y004547D03*
X004480Y004547D03*
X003980Y004547D03*
X003380Y004547D03*
X002380Y006047D03*
X002380Y007347D03*
X001180Y007047D03*
X001280Y009447D03*
X003980Y008847D03*
D22*
X004084Y008789D02*
X003380Y008789D01*
X003380Y008631D02*
X004084Y008631D01*
X004084Y008472D02*
X003380Y008472D01*
X003380Y008314D02*
X004084Y008314D01*
X004084Y008155D02*
X003380Y008155D01*
X003380Y007997D02*
X004084Y007997D01*
X004084Y007838D02*
X003380Y007838D01*
X003380Y007680D02*
X004084Y007680D01*
X004084Y007521D02*
X003380Y007521D01*
X003380Y007363D02*
X004072Y007363D01*
X004075Y007379D02*
X004065Y007331D01*
X004065Y007179D01*
X004463Y007179D01*
X004463Y007103D01*
X004065Y007103D01*
X004065Y006951D01*
X004075Y006902D01*
X004084Y006880D01*
X004084Y005367D01*
X003380Y006071D01*
X003380Y009707D01*
X003804Y009707D01*
X004120Y010023D01*
X004120Y010471D01*
X003804Y010787D01*
X003799Y010787D01*
X004060Y011048D01*
X004060Y011227D01*
X003600Y011227D01*
X003600Y011267D01*
X004060Y011267D01*
X004060Y011446D01*
X003779Y011727D01*
X003600Y011727D01*
X003600Y011267D01*
X003560Y011267D01*
X003560Y011727D01*
X003381Y011727D01*
X003120Y011466D01*
X003120Y011471D01*
X002804Y011787D01*
X002356Y011787D01*
X002080Y011511D01*
X001804Y011787D01*
X001356Y011787D01*
X001040Y011471D01*
X001040Y011023D01*
X001316Y010747D01*
X001040Y010471D01*
X001040Y010023D01*
X001218Y009845D01*
X001201Y009845D01*
X001054Y009785D01*
X000942Y009673D01*
X000882Y009526D01*
X000882Y009473D01*
X000526Y009117D01*
X000480Y009007D01*
X000480Y005987D01*
X000526Y005877D01*
X000610Y005793D01*
X000801Y005602D01*
X000740Y005454D01*
X000740Y005240D01*
X000822Y005041D01*
X000974Y004889D01*
X001076Y004847D01*
X000974Y004805D01*
X000822Y004653D01*
X000740Y004454D01*
X000740Y004240D01*
X000822Y004041D01*
X000974Y003889D01*
X001076Y003847D01*
X000974Y003805D01*
X000822Y003653D01*
X000740Y003454D01*
X000740Y003240D01*
X000822Y003041D01*
X000974Y002889D01*
X001076Y002847D01*
X000974Y002805D01*
X000822Y002653D01*
X000740Y002454D01*
X000740Y002240D01*
X000822Y002041D01*
X000974Y001889D01*
X001159Y001813D01*
X001096Y001792D01*
X001028Y001758D01*
X000967Y001713D01*
X000914Y001660D01*
X000869Y001599D01*
X000835Y001531D01*
X000812Y001459D01*
X000800Y001385D01*
X000800Y001367D01*
X001560Y001367D01*
X001560Y001327D01*
X001600Y001327D01*
X001600Y000867D01*
X001918Y000867D01*
X001992Y000879D01*
X002064Y000902D01*
X002132Y000936D01*
X002193Y000981D01*
X002246Y001034D01*
X002291Y001095D01*
X002325Y001163D01*
X002348Y001235D01*
X002360Y001309D01*
X002360Y001327D01*
X001600Y001327D01*
X001600Y001367D01*
X002360Y001367D01*
X002360Y001385D01*
X002348Y001459D01*
X002325Y001531D01*
X002291Y001599D01*
X002246Y001660D01*
X002193Y001713D01*
X002132Y001758D01*
X002064Y001792D01*
X002001Y001813D01*
X002186Y001889D01*
X002338Y002041D01*
X002420Y002240D01*
X002420Y002454D01*
X002338Y002653D01*
X002186Y002805D01*
X002084Y002847D01*
X002186Y002889D01*
X002338Y003041D01*
X002420Y003240D01*
X002420Y003454D01*
X002338Y003653D01*
X002186Y003805D01*
X002084Y003847D01*
X002186Y003889D01*
X002338Y004041D01*
X002420Y004240D01*
X002420Y004454D01*
X002338Y004653D01*
X002186Y004805D01*
X002084Y004847D01*
X002186Y004889D01*
X002338Y005041D01*
X002374Y005129D01*
X002982Y004521D01*
X002982Y004468D01*
X003042Y004321D01*
X003154Y004209D01*
X003301Y004149D01*
X003459Y004149D01*
X003606Y004209D01*
X003680Y004284D01*
X003754Y004209D01*
X003901Y004149D01*
X004057Y004149D01*
X004026Y004117D01*
X003926Y004017D01*
X003880Y003907D01*
X003880Y001787D01*
X003926Y001677D01*
X004010Y001593D01*
X004110Y001493D01*
X004220Y001447D01*
X004366Y001447D01*
X004412Y001401D01*
X004400Y001379D01*
X004387Y001333D01*
X004387Y001126D01*
X004757Y001126D01*
X004757Y001345D01*
X004803Y001345D01*
X004803Y001126D01*
X004757Y001126D01*
X004757Y001079D01*
X004387Y001079D01*
X004387Y000872D01*
X004400Y000826D01*
X004422Y000787D01*
X000420Y000787D01*
X000420Y011903D01*
X008156Y011903D01*
X008136Y011883D01*
X008100Y011795D01*
X008100Y010971D01*
X008136Y010883D01*
X008204Y010815D01*
X008292Y010779D01*
X009451Y010779D01*
X009539Y010815D01*
X009578Y010854D01*
X009584Y010850D01*
X009634Y010830D01*
X009687Y010819D01*
X009857Y010819D01*
X009857Y011296D01*
X010012Y011296D01*
X010012Y011450D01*
X010429Y011450D01*
X010429Y011680D01*
X010419Y011733D01*
X010398Y011783D01*
X010368Y011828D01*
X010330Y011866D01*
X010285Y011896D01*
X010267Y011903D01*
X010710Y011903D01*
X010710Y000787D01*
X008638Y000787D01*
X008660Y000826D01*
X008673Y000872D01*
X008673Y001079D01*
X008303Y001079D01*
X008303Y001126D01*
X008257Y001126D01*
X008257Y001345D01*
X008303Y001345D01*
X008303Y001126D01*
X008673Y001126D01*
X008673Y001333D01*
X008660Y001379D01*
X008648Y001401D01*
X008696Y001449D01*
X008733Y001537D01*
X008733Y002046D01*
X008696Y002134D01*
X008629Y002202D01*
X008540Y002238D01*
X008020Y002238D01*
X007931Y002202D01*
X007864Y002134D01*
X007828Y002047D01*
X007680Y002047D01*
X007680Y002957D01*
X007701Y002949D01*
X007859Y002949D01*
X007871Y002953D01*
X007931Y002892D01*
X008020Y002856D01*
X008540Y002856D01*
X008629Y002892D01*
X008696Y002960D01*
X008733Y003048D01*
X008733Y003557D01*
X008696Y003645D01*
X008694Y003647D01*
X008696Y003649D01*
X008733Y003737D01*
X008733Y004246D01*
X008696Y004334D01*
X008629Y004402D01*
X008540Y004438D01*
X008180Y004438D01*
X008180Y004743D01*
X008198Y004735D01*
X008481Y004735D01*
X008590Y004780D01*
X008659Y004850D01*
X008660Y004849D01*
X008699Y004823D01*
X008743Y004805D01*
X008789Y004795D01*
X008932Y004795D01*
X008932Y005272D01*
X008969Y005272D01*
X008969Y005309D01*
X009327Y005309D01*
X009327Y005349D01*
X009354Y005349D01*
X009380Y005323D01*
X009380Y002610D01*
X009342Y002573D01*
X009282Y002426D01*
X009282Y002268D01*
X009342Y002121D01*
X009454Y002009D01*
X009601Y001949D01*
X009759Y001949D01*
X009797Y001964D01*
X009782Y001926D01*
X009782Y001768D01*
X009842Y001621D01*
X009954Y001509D01*
X010101Y001449D01*
X010259Y001449D01*
X010406Y001509D01*
X010518Y001621D01*
X010578Y001768D01*
X010578Y001926D01*
X010518Y002073D01*
X010480Y002110D01*
X010480Y006807D01*
X010434Y006917D01*
X007851Y009501D01*
X007878Y009568D01*
X007878Y009726D01*
X007870Y009747D01*
X008956Y009747D01*
X009082Y009621D01*
X009082Y009568D01*
X009142Y009421D01*
X009254Y009309D01*
X009401Y009249D01*
X009559Y009249D01*
X009706Y009309D01*
X009818Y009421D01*
X009878Y009568D01*
X009878Y009726D01*
X009818Y009873D01*
X009706Y009985D01*
X009559Y010045D01*
X009506Y010045D01*
X009250Y010301D01*
X009140Y010347D01*
X006820Y010347D01*
X006710Y010301D01*
X006626Y010217D01*
X006326Y009917D01*
X006280Y009807D01*
X006280Y009487D01*
X006326Y009377D01*
X006680Y009023D01*
X006680Y008887D01*
X006682Y008884D01*
X006682Y008868D01*
X006742Y008721D01*
X006854Y008609D01*
X007001Y008549D01*
X007159Y008549D01*
X007306Y008609D01*
X007418Y008721D01*
X007436Y008766D01*
X007956Y008247D01*
X005351Y008247D01*
X005351Y010811D01*
X005315Y010899D01*
X005247Y010966D01*
X005159Y011003D01*
X004937Y011003D01*
X004937Y011118D01*
X004549Y011118D01*
X004549Y010435D01*
X004596Y010435D01*
X004596Y009979D01*
X004235Y009979D01*
X004130Y009935D01*
X004049Y009855D01*
X004005Y009749D01*
X004005Y009414D01*
X004049Y009309D01*
X004130Y009228D01*
X004139Y009224D01*
X004121Y009206D01*
X004084Y009118D01*
X004084Y007401D01*
X004075Y007379D01*
X004065Y007204D02*
X003380Y007204D01*
X003380Y007046D02*
X004065Y007046D01*
X004081Y006887D02*
X003380Y006887D01*
X003380Y006729D02*
X004084Y006729D01*
X004084Y006570D02*
X003380Y006570D01*
X003380Y006412D02*
X004084Y006412D01*
X004084Y006253D02*
X003380Y006253D01*
X003380Y006095D02*
X004084Y006095D01*
X004084Y005936D02*
X003515Y005936D01*
X003674Y005778D02*
X004084Y005778D01*
X004084Y005619D02*
X003832Y005619D01*
X003991Y005461D02*
X004084Y005461D01*
X004833Y004735D02*
X005076Y004735D01*
X005121Y004754D01*
X005167Y004735D01*
X005450Y004735D01*
X005525Y004766D01*
X005600Y004735D01*
X005883Y004735D01*
X005991Y004780D01*
X006018Y004807D01*
X006023Y004804D01*
X006069Y004795D01*
X006174Y004795D01*
X006174Y005290D01*
X006174Y005290D01*
X006174Y004795D01*
X006204Y004795D01*
X005856Y004447D01*
X005720Y004447D01*
X005610Y004401D01*
X005456Y004247D01*
X005232Y004247D01*
X005196Y004334D01*
X005129Y004402D01*
X005040Y004438D01*
X004866Y004438D01*
X004878Y004468D01*
X004878Y004626D01*
X004833Y004735D01*
X004861Y004668D02*
X006077Y004668D01*
X006174Y004827D02*
X006174Y004827D01*
X006174Y004985D02*
X006174Y004985D01*
X006174Y005144D02*
X006174Y005144D01*
X006174Y005290D02*
X006174Y005785D01*
X006144Y005785D01*
X006178Y005868D01*
X006178Y006026D01*
X006118Y006173D01*
X006006Y006285D01*
X005859Y006345D01*
X005701Y006345D01*
X005554Y006285D01*
X005442Y006173D01*
X005382Y006026D01*
X005382Y005868D01*
X005391Y005845D01*
X005167Y005845D01*
X005121Y005826D01*
X005076Y005845D01*
X004958Y005845D01*
X004958Y006893D01*
X004936Y006945D01*
X004937Y006951D01*
X004937Y007103D01*
X004539Y007103D01*
X004539Y007179D01*
X004937Y007179D01*
X004937Y007251D01*
X004976Y007213D01*
X005064Y007176D01*
X008506Y007176D01*
X008580Y007207D01*
X008580Y006810D01*
X008506Y006885D01*
X008359Y006945D01*
X008201Y006945D01*
X008054Y006885D01*
X008017Y006847D01*
X007420Y006847D01*
X007310Y006801D01*
X006910Y006401D01*
X006826Y006317D01*
X006780Y006207D01*
X006780Y005832D01*
X006749Y005845D01*
X006466Y005845D01*
X006358Y005800D01*
X006331Y005774D01*
X006326Y005776D01*
X006280Y005785D01*
X006174Y005785D01*
X006174Y005290D01*
X006174Y005290D01*
X006174Y005302D02*
X006174Y005302D01*
X006174Y005461D02*
X006174Y005461D01*
X006174Y005619D02*
X006174Y005619D01*
X006174Y005778D02*
X006174Y005778D01*
X006319Y005778D02*
X006335Y005778D01*
X006178Y005936D02*
X006780Y005936D01*
X006780Y006095D02*
X006150Y006095D01*
X006037Y006253D02*
X006799Y006253D01*
X006920Y006412D02*
X004958Y006412D01*
X004958Y006570D02*
X007079Y006570D01*
X007237Y006729D02*
X004958Y006729D01*
X004958Y006887D02*
X008060Y006887D01*
X008500Y006887D02*
X008580Y006887D01*
X008580Y007046D02*
X004937Y007046D01*
X004937Y007204D02*
X004997Y007204D01*
X004958Y006253D02*
X005523Y006253D01*
X005410Y006095D02*
X004958Y006095D01*
X004958Y005936D02*
X005382Y005936D01*
X004878Y004510D02*
X005918Y004510D01*
X005560Y004351D02*
X005179Y004351D01*
X004982Y002856D02*
X004520Y002856D01*
X004480Y002872D01*
X004480Y002222D01*
X004520Y002238D01*
X005040Y002238D01*
X005129Y002202D01*
X005196Y002134D01*
X005233Y002046D01*
X005233Y001537D01*
X005196Y001449D01*
X005148Y001401D01*
X005160Y001379D01*
X005173Y001333D01*
X005173Y001126D01*
X004803Y001126D01*
X004803Y001079D01*
X005173Y001079D01*
X005173Y000872D01*
X005160Y000826D01*
X005138Y000787D01*
X006122Y000787D01*
X006100Y000826D01*
X006087Y000872D01*
X006087Y001079D01*
X006457Y001079D01*
X006457Y001126D01*
X006457Y001345D01*
X006503Y001345D01*
X006503Y001126D01*
X006457Y001126D01*
X006087Y001126D01*
X006087Y001333D01*
X006100Y001379D01*
X006112Y001401D01*
X006066Y001447D01*
X005820Y001447D01*
X005710Y001493D01*
X005626Y001577D01*
X005526Y001677D01*
X005480Y001787D01*
X005480Y002457D01*
X005459Y002449D01*
X005301Y002449D01*
X005154Y002509D01*
X005042Y002621D01*
X004982Y002768D01*
X004982Y002856D01*
X004982Y002766D02*
X004480Y002766D01*
X004480Y002608D02*
X005056Y002608D01*
X005300Y002449D02*
X004480Y002449D01*
X004480Y002291D02*
X005480Y002291D01*
X005480Y002132D02*
X005197Y002132D01*
X005233Y001974D02*
X005480Y001974D01*
X005480Y001815D02*
X005233Y001815D01*
X005233Y001657D02*
X005546Y001657D01*
X005705Y001498D02*
X005216Y001498D01*
X005171Y001340D02*
X006089Y001340D01*
X006087Y001181D02*
X005173Y001181D01*
X005173Y001023D02*
X006087Y001023D01*
X006090Y000864D02*
X005170Y000864D01*
X004803Y001181D02*
X004757Y001181D01*
X004757Y001340D02*
X004803Y001340D01*
X004389Y001340D02*
X001600Y001340D01*
X001560Y001340D02*
X000420Y001340D01*
X000420Y001498D02*
X000824Y001498D01*
X000800Y001327D02*
X000800Y001309D01*
X000812Y001235D01*
X000835Y001163D01*
X000869Y001095D01*
X000914Y001034D01*
X000967Y000981D01*
X001028Y000936D01*
X001096Y000902D01*
X001168Y000879D01*
X001242Y000867D01*
X001560Y000867D01*
X001560Y001327D01*
X000800Y001327D01*
X000829Y001181D02*
X000420Y001181D01*
X000420Y001023D02*
X000926Y001023D01*
X000912Y001657D02*
X000420Y001657D01*
X000420Y001815D02*
X001153Y001815D01*
X000890Y001974D02*
X000420Y001974D01*
X000420Y002132D02*
X000785Y002132D01*
X000740Y002291D02*
X000420Y002291D01*
X000420Y002449D02*
X000740Y002449D01*
X000803Y002608D02*
X000420Y002608D01*
X000420Y002766D02*
X000935Y002766D01*
X000939Y002925D02*
X000420Y002925D01*
X000420Y003083D02*
X000805Y003083D01*
X000740Y003242D02*
X000420Y003242D01*
X000420Y003400D02*
X000740Y003400D01*
X000783Y003559D02*
X000420Y003559D01*
X000420Y003717D02*
X000886Y003717D01*
X001007Y003876D02*
X000420Y003876D01*
X000420Y004034D02*
X000829Y004034D01*
X000760Y004193D02*
X000420Y004193D01*
X000420Y004351D02*
X000740Y004351D01*
X000763Y004510D02*
X000420Y004510D01*
X000420Y004668D02*
X000837Y004668D01*
X001027Y004827D02*
X000420Y004827D01*
X000420Y004985D02*
X000878Y004985D01*
X000780Y005144D02*
X000420Y005144D01*
X000420Y005302D02*
X000740Y005302D01*
X000743Y005461D02*
X000420Y005461D01*
X000420Y005619D02*
X000784Y005619D01*
X000625Y005778D02*
X000420Y005778D01*
X000420Y005936D02*
X000501Y005936D01*
X000480Y006095D02*
X000420Y006095D01*
X000420Y006253D02*
X000480Y006253D01*
X000480Y006412D02*
X000420Y006412D01*
X000420Y006570D02*
X000480Y006570D01*
X000480Y006729D02*
X000420Y006729D01*
X000420Y006887D02*
X000480Y006887D01*
X000480Y007046D02*
X000420Y007046D01*
X000420Y007204D02*
X000480Y007204D01*
X000480Y007363D02*
X000420Y007363D01*
X000420Y007521D02*
X000480Y007521D01*
X000480Y007680D02*
X000420Y007680D01*
X000420Y007838D02*
X000480Y007838D01*
X000480Y007997D02*
X000420Y007997D01*
X000420Y008155D02*
X000480Y008155D01*
X000480Y008314D02*
X000420Y008314D01*
X000420Y008472D02*
X000480Y008472D01*
X000480Y008631D02*
X000420Y008631D01*
X000420Y008789D02*
X000480Y008789D01*
X000480Y008948D02*
X000420Y008948D01*
X000420Y009106D02*
X000521Y009106D01*
X000420Y009265D02*
X000673Y009265D01*
X000832Y009423D02*
X000420Y009423D01*
X000420Y009582D02*
X000904Y009582D01*
X001010Y009740D02*
X000420Y009740D01*
X000420Y009899D02*
X001165Y009899D01*
X001040Y010057D02*
X000420Y010057D01*
X000420Y010216D02*
X001040Y010216D01*
X001040Y010374D02*
X000420Y010374D01*
X000420Y010533D02*
X001102Y010533D01*
X001260Y010691D02*
X000420Y010691D01*
X000420Y010850D02*
X001214Y010850D01*
X001055Y011008D02*
X000420Y011008D01*
X000420Y011167D02*
X001040Y011167D01*
X001040Y011325D02*
X000420Y011325D01*
X000420Y011484D02*
X001053Y011484D01*
X001211Y011642D02*
X000420Y011642D01*
X000420Y011801D02*
X004120Y011801D01*
X004123Y011804D02*
X004095Y011762D01*
X004075Y011716D01*
X004065Y011666D01*
X004065Y011214D01*
X004453Y011214D01*
X004453Y011118D01*
X004549Y011118D01*
X004549Y011214D01*
X004937Y011214D01*
X004937Y011666D01*
X004927Y011716D01*
X004908Y011762D01*
X004880Y011804D01*
X004844Y011840D01*
X004802Y011868D01*
X004755Y011888D01*
X004706Y011897D01*
X004549Y011897D01*
X004549Y011214D01*
X004453Y011214D01*
X004453Y011897D01*
X004297Y011897D01*
X004247Y011888D01*
X004200Y011868D01*
X004158Y011840D01*
X004123Y011804D01*
X004065Y011642D02*
X003864Y011642D01*
X004022Y011484D02*
X004065Y011484D01*
X004060Y011325D02*
X004065Y011325D01*
X004060Y011167D02*
X004453Y011167D01*
X004453Y011118D02*
X004065Y011118D01*
X004065Y010667D01*
X004075Y010617D01*
X004095Y010570D01*
X004123Y010528D01*
X004158Y010492D01*
X004200Y010464D01*
X004247Y010445D01*
X004297Y010435D01*
X004453Y010435D01*
X004453Y011118D01*
X004549Y011167D02*
X008100Y011167D01*
X008100Y011325D02*
X004937Y011325D01*
X004937Y011484D02*
X008100Y011484D01*
X008100Y011642D02*
X004937Y011642D01*
X004882Y011801D02*
X008102Y011801D01*
X008100Y011008D02*
X004937Y011008D01*
X005335Y010850D02*
X008170Y010850D01*
X007873Y009740D02*
X008963Y009740D01*
X009082Y009582D02*
X007878Y009582D01*
X007928Y009423D02*
X009142Y009423D01*
X009362Y009265D02*
X008087Y009265D01*
X008245Y009106D02*
X010710Y009106D01*
X010710Y008948D02*
X008404Y008948D01*
X008562Y008789D02*
X010710Y008789D01*
X010710Y008631D02*
X008721Y008631D01*
X008879Y008472D02*
X010710Y008472D01*
X010710Y008314D02*
X009038Y008314D01*
X009196Y008155D02*
X010710Y008155D01*
X010710Y007997D02*
X009355Y007997D01*
X009513Y007838D02*
X010710Y007838D01*
X010710Y007680D02*
X009672Y007680D01*
X009830Y007521D02*
X010710Y007521D01*
X010710Y007363D02*
X009989Y007363D01*
X010147Y007204D02*
X010710Y007204D01*
X010710Y007046D02*
X010306Y007046D01*
X010447Y006887D02*
X010710Y006887D01*
X010710Y006729D02*
X010480Y006729D01*
X010480Y006570D02*
X010710Y006570D01*
X010710Y006412D02*
X010480Y006412D01*
X010480Y006253D02*
X010710Y006253D01*
X010710Y006095D02*
X010480Y006095D01*
X010480Y005936D02*
X010710Y005936D01*
X010710Y005778D02*
X010480Y005778D01*
X010480Y005619D02*
X010710Y005619D01*
X010710Y005461D02*
X010480Y005461D01*
X010480Y005302D02*
X010710Y005302D01*
X010710Y005144D02*
X010480Y005144D01*
X010480Y004985D02*
X010710Y004985D01*
X010710Y004827D02*
X010480Y004827D01*
X010480Y004668D02*
X010710Y004668D01*
X010710Y004510D02*
X010480Y004510D01*
X010480Y004351D02*
X010710Y004351D01*
X010710Y004193D02*
X010480Y004193D01*
X010480Y004034D02*
X010710Y004034D01*
X010710Y003876D02*
X010480Y003876D01*
X010480Y003717D02*
X010710Y003717D01*
X010710Y003559D02*
X010480Y003559D01*
X010480Y003400D02*
X010710Y003400D01*
X010710Y003242D02*
X010480Y003242D01*
X010480Y003083D02*
X010710Y003083D01*
X010710Y002925D02*
X010480Y002925D01*
X010480Y002766D02*
X010710Y002766D01*
X010710Y002608D02*
X010480Y002608D01*
X010480Y002449D02*
X010710Y002449D01*
X010710Y002291D02*
X010480Y002291D01*
X010480Y002132D02*
X010710Y002132D01*
X010710Y001974D02*
X010559Y001974D01*
X010578Y001815D02*
X010710Y001815D01*
X010710Y001657D02*
X010532Y001657D01*
X010379Y001498D02*
X010710Y001498D01*
X010710Y001340D02*
X008671Y001340D01*
X008673Y001181D02*
X010710Y001181D01*
X010710Y001023D02*
X008673Y001023D01*
X008670Y000864D02*
X010710Y000864D01*
X009981Y001498D02*
X008716Y001498D01*
X008733Y001657D02*
X009828Y001657D01*
X009782Y001815D02*
X008733Y001815D01*
X008733Y001974D02*
X009541Y001974D01*
X009338Y002132D02*
X008697Y002132D01*
X008303Y001340D02*
X008257Y001340D01*
X008257Y001181D02*
X008303Y001181D01*
X008257Y001126D02*
X008257Y001079D01*
X007887Y001079D01*
X007887Y000872D01*
X007900Y000826D01*
X007922Y000787D01*
X006838Y000787D01*
X006860Y000826D01*
X006873Y000872D01*
X006873Y001079D01*
X006503Y001079D01*
X006503Y001126D01*
X006873Y001126D01*
X006873Y001202D01*
X007001Y001149D01*
X007159Y001149D01*
X007306Y001209D01*
X007418Y001321D01*
X007477Y001463D01*
X007499Y001452D01*
X007510Y001451D01*
X007520Y001447D01*
X007569Y001447D01*
X007618Y001444D01*
X007629Y001447D01*
X007866Y001447D01*
X007912Y001401D01*
X007900Y001379D01*
X007887Y001333D01*
X007887Y001126D01*
X008257Y001126D01*
X007887Y001181D02*
X007238Y001181D01*
X007425Y001340D02*
X007889Y001340D01*
X007887Y001023D02*
X006873Y001023D01*
X006873Y001181D02*
X006922Y001181D01*
X006870Y000864D02*
X007890Y000864D01*
X007863Y002132D02*
X007680Y002132D01*
X007680Y002291D02*
X009282Y002291D01*
X009291Y002449D02*
X007680Y002449D01*
X007680Y002608D02*
X009377Y002608D01*
X009380Y002766D02*
X007680Y002766D01*
X007680Y002925D02*
X007899Y002925D01*
X008661Y002925D02*
X009380Y002925D01*
X009380Y003083D02*
X008733Y003083D01*
X008733Y003242D02*
X009380Y003242D01*
X009380Y003400D02*
X008733Y003400D01*
X008732Y003559D02*
X009380Y003559D01*
X009380Y003717D02*
X008724Y003717D01*
X008733Y003876D02*
X009380Y003876D01*
X009380Y004034D02*
X008733Y004034D01*
X008733Y004193D02*
X009380Y004193D01*
X009380Y004351D02*
X008679Y004351D01*
X008693Y004827D02*
X008636Y004827D01*
X008932Y004827D02*
X008969Y004827D01*
X008969Y004795D02*
X009111Y004795D01*
X009158Y004805D01*
X009201Y004823D01*
X009240Y004849D01*
X009274Y004882D01*
X009300Y004921D01*
X009318Y004965D01*
X009327Y005011D01*
X009327Y005272D01*
X008969Y005272D01*
X008969Y004795D01*
X008969Y004985D02*
X008932Y004985D01*
X008932Y005144D02*
X008969Y005144D01*
X008969Y005302D02*
X009380Y005302D01*
X009380Y005144D02*
X009327Y005144D01*
X009322Y004985D02*
X009380Y004985D01*
X009380Y004827D02*
X009207Y004827D01*
X009380Y004668D02*
X008180Y004668D01*
X008180Y004510D02*
X009380Y004510D01*
X008969Y005309D02*
X008932Y005309D01*
X008932Y005785D01*
X008789Y005785D01*
X008743Y005776D01*
X008699Y005758D01*
X008660Y005732D01*
X008659Y005731D01*
X008590Y005800D01*
X008481Y005845D01*
X008198Y005845D01*
X008123Y005814D01*
X008048Y005845D01*
X007765Y005845D01*
X007690Y005814D01*
X007615Y005845D01*
X007380Y005845D01*
X007380Y006023D01*
X007604Y006247D01*
X008017Y006247D01*
X008054Y006209D01*
X008201Y006149D01*
X008359Y006149D01*
X008506Y006209D01*
X008580Y006284D01*
X008654Y006209D01*
X008801Y006149D01*
X008959Y006149D01*
X009106Y006209D01*
X009218Y006321D01*
X009278Y006468D01*
X009278Y006626D01*
X009218Y006773D01*
X009180Y006810D01*
X009180Y007323D01*
X009880Y006623D01*
X009880Y005671D01*
X009778Y005773D01*
X009778Y005826D01*
X009718Y005973D01*
X009606Y006085D01*
X009459Y006145D01*
X009301Y006145D01*
X009154Y006085D01*
X009042Y005973D01*
X008982Y005826D01*
X008982Y005785D01*
X008969Y005785D01*
X008969Y005309D01*
X008969Y005461D02*
X008932Y005461D01*
X008932Y005619D02*
X008969Y005619D01*
X008969Y005778D02*
X008932Y005778D01*
X009027Y005936D02*
X007380Y005936D01*
X007452Y006095D02*
X009178Y006095D01*
X009149Y006253D02*
X009880Y006253D01*
X009880Y006095D02*
X009582Y006095D01*
X009733Y005936D02*
X009880Y005936D01*
X009880Y005778D02*
X009778Y005778D01*
X009880Y006412D02*
X009255Y006412D01*
X009278Y006570D02*
X009880Y006570D01*
X009774Y006729D02*
X009236Y006729D01*
X009180Y006887D02*
X009616Y006887D01*
X009457Y007046D02*
X009180Y007046D01*
X009180Y007204D02*
X009299Y007204D01*
X008580Y007204D02*
X008573Y007204D01*
X008549Y006253D02*
X008611Y006253D01*
X008613Y005778D02*
X008750Y005778D01*
X007889Y008314D02*
X005351Y008314D01*
X005351Y008472D02*
X007731Y008472D01*
X007572Y008631D02*
X007327Y008631D01*
X006833Y008631D02*
X005351Y008631D01*
X005351Y008789D02*
X006714Y008789D01*
X006680Y008948D02*
X005351Y008948D01*
X005351Y009106D02*
X006597Y009106D01*
X006438Y009265D02*
X005351Y009265D01*
X005351Y009423D02*
X006307Y009423D01*
X006280Y009582D02*
X005351Y009582D01*
X005351Y009740D02*
X006280Y009740D01*
X006318Y009899D02*
X005351Y009899D01*
X005351Y010057D02*
X006466Y010057D01*
X006624Y010216D02*
X005351Y010216D01*
X005351Y010374D02*
X010710Y010374D01*
X010710Y010216D02*
X009336Y010216D01*
X009494Y010057D02*
X010710Y010057D01*
X010710Y009899D02*
X009792Y009899D01*
X009873Y009740D02*
X010710Y009740D01*
X010710Y009582D02*
X009878Y009582D01*
X009818Y009423D02*
X010710Y009423D01*
X010710Y009265D02*
X009598Y009265D01*
X009573Y010850D02*
X009586Y010850D01*
X009857Y010850D02*
X010012Y010850D01*
X010012Y010819D02*
X010182Y010819D01*
X010235Y010830D01*
X010285Y010850D01*
X010330Y010880D01*
X010368Y010918D01*
X010398Y010963D01*
X010419Y011013D01*
X010429Y011066D01*
X010429Y011296D01*
X010012Y011296D01*
X010012Y010819D01*
X010012Y011008D02*
X009857Y011008D01*
X009857Y011167D02*
X010012Y011167D01*
X010012Y011325D02*
X010710Y011325D01*
X010710Y011167D02*
X010429Y011167D01*
X010417Y011008D02*
X010710Y011008D01*
X010710Y010850D02*
X010283Y010850D01*
X010710Y010691D02*
X005351Y010691D01*
X005351Y010533D02*
X010710Y010533D01*
X010710Y011484D02*
X010429Y011484D01*
X010429Y011642D02*
X010710Y011642D01*
X010710Y011801D02*
X010386Y011801D01*
X004596Y010374D02*
X004120Y010374D01*
X004120Y010216D02*
X004596Y010216D01*
X004596Y010057D02*
X004120Y010057D01*
X004093Y009899D02*
X003995Y009899D01*
X004005Y009740D02*
X003837Y009740D01*
X004005Y009582D02*
X003380Y009582D01*
X003380Y009423D02*
X004005Y009423D01*
X004093Y009265D02*
X003380Y009265D01*
X003380Y009106D02*
X004084Y009106D01*
X004084Y008948D02*
X003380Y008948D01*
X002380Y008543D02*
X002380Y007745D01*
X002301Y007745D01*
X002256Y007727D01*
X001600Y007727D01*
X001600Y007767D01*
X002360Y007767D01*
X002360Y007785D01*
X002348Y007859D01*
X002325Y007931D01*
X002291Y007999D01*
X002246Y008060D01*
X002193Y008113D01*
X002132Y008158D01*
X002064Y008192D01*
X002001Y008213D01*
X002186Y008289D01*
X002338Y008441D01*
X002380Y008543D01*
X002380Y008472D02*
X002351Y008472D01*
X002380Y008314D02*
X002210Y008314D01*
X002135Y008155D02*
X002380Y008155D01*
X002380Y007997D02*
X002292Y007997D01*
X002352Y007838D02*
X002380Y007838D01*
X004058Y010533D02*
X004120Y010533D01*
X004065Y010691D02*
X003900Y010691D01*
X003861Y010850D02*
X004065Y010850D01*
X004065Y011008D02*
X004020Y011008D01*
X004453Y011008D02*
X004549Y011008D01*
X004549Y010850D02*
X004453Y010850D01*
X004453Y010691D02*
X004549Y010691D01*
X004549Y010533D02*
X004453Y010533D01*
X004453Y011325D02*
X004549Y011325D01*
X004549Y011484D02*
X004453Y011484D01*
X004453Y011642D02*
X004549Y011642D01*
X004549Y011801D02*
X004453Y011801D01*
X003600Y011642D02*
X003560Y011642D01*
X003560Y011484D02*
X003600Y011484D01*
X003600Y011325D02*
X003560Y011325D01*
X003296Y011642D02*
X002949Y011642D01*
X003107Y011484D02*
X003138Y011484D01*
X002211Y011642D02*
X001949Y011642D01*
X002282Y004985D02*
X002518Y004985D01*
X002676Y004827D02*
X002133Y004827D01*
X002323Y004668D02*
X002835Y004668D01*
X002982Y004510D02*
X002397Y004510D01*
X002420Y004351D02*
X003030Y004351D01*
X003195Y004193D02*
X002400Y004193D01*
X002331Y004034D02*
X003943Y004034D01*
X003880Y003876D02*
X002153Y003876D01*
X002274Y003717D02*
X003880Y003717D01*
X003880Y003559D02*
X002377Y003559D01*
X002420Y003400D02*
X003880Y003400D01*
X003880Y003242D02*
X002420Y003242D01*
X002355Y003083D02*
X003880Y003083D01*
X003880Y002925D02*
X002221Y002925D01*
X002225Y002766D02*
X003880Y002766D01*
X003880Y002608D02*
X002357Y002608D01*
X002420Y002449D02*
X003880Y002449D01*
X003880Y002291D02*
X002420Y002291D01*
X002375Y002132D02*
X003880Y002132D01*
X003880Y001974D02*
X002270Y001974D01*
X002248Y001657D02*
X003946Y001657D01*
X004010Y001593D02*
X004010Y001593D01*
X004105Y001498D02*
X002336Y001498D01*
X002331Y001181D02*
X004387Y001181D01*
X004387Y001023D02*
X002234Y001023D01*
X002007Y001815D02*
X003880Y001815D01*
X004390Y000864D02*
X000420Y000864D01*
X001560Y001023D02*
X001600Y001023D01*
X001600Y001181D02*
X001560Y001181D01*
X003565Y004193D02*
X003795Y004193D01*
X005460Y002449D02*
X005480Y002449D01*
X006457Y001340D02*
X006503Y001340D01*
X006503Y001181D02*
X006457Y001181D01*
M02*
